<?xml version="1.0" encoding="utf-8"?>
<!DOCTYPE svg PUBLIC "-//W3C//DTD SVG 1.1//EN" "http://www.w3.org/Graphics/SVG/1.1/DTD/svg11.dtd">
<svg xmlns="http://www.w3.org/2000/svg" version="1.1" x="0" y="0" width="120" height="24" viewBox="0 0 120 24">
  <path stroke="#666" fill="none" d="M 0,0 L 120,0 L 120,24 L 0,24 z"/>

  <!-- group -->
  <g>
    <svg x="0" y="0" width="24" height="24" viewBox="0 0 24 24">
      <path fill="#666" d="M 4,4 L 14,4 L 14,9 L 19,9 L 19,19 L 9,19 L 9,14 L 4,14 z"/>
    </svg>
  </g>

  <!-- copy group -->
  <g>
    <svg x="24" y="0" width="24" height="24" viewBox="0 0 24 24">
      <path fill="#666" d="M 4.8,6 L 10.6,6 L 10.6,18 L 4.8,18 z M 11.3,11 L 14,12.5 L 11.3,14 z M 14.4,6 L 20.2,6 L 20.2,18 L 14.4,18 z"/>
    </svg>
  </g>

  <!-- delete -->
  <g>
    <svg x="48" y="0" width="24" height="24" viewBox="0 0 24 24">
      <path fill="#666" d="M 7,5 l -2,2 l 5,5 l -5,5 l 2,2 l 5,-5 l 5,5 l 2,-2 l -5,-5 l 5,-5 l -2,-2 l -5,5 z"/>
    </svg>
  </g>

  <!-- undo -->
  <g>
	<svg x="72" y="0" width="24" height="24" viewBox="0 0 24 24">
      <path fill="#666" d="M 10.56,5.3999996 L 4.56,12.0 L 10.56,18.6 L 10.56,15.0 Q 18.96,15.6 21.359999,4.7999997 Q 18.96,9.6 10.56,9.0 z"/>
    </svg>
  </g>

  <!-- redo -->
  <g>
    <svg x="96" y="0" width="24" height="24" viewBox="0 0 24 24">
      <path fill="#666" d="M 13.44,18.6 L 19.44,12.0 L 13.44,5.3999996 L 13.44,9.0 Q 5.0399995,8.4 2.6399994,19.2 Q 5.0399995,14.4 13.44,15.0 z"/>
    </svg>
  </g>
</svg>
